<?xml version="1.0" encoding="UTF-8" standalone="no"?>
<!-- Generator: Adobe Illustrator 27.5.0, SVG Export Plug-In . SVG Version: 6.00 Build 0)  -->

<svg
   version="1.1"
   id="Layer_1"
   x="0px"
   y="0px"
   viewBox="0 0 2900 2000"
   style="enable-background:new 0 0 2900 2000;"
   xml:space="preserve"
   sodipodi:docname="beach_computer.svg"
   inkscape:export-filename="beach_computer.png"
   inkscape:export-xdpi="96"
   inkscape:export-ydpi="96"
   inkscape:version="1.3.2 (091e20ef0f, 2023-11-25, custom)"
   xmlns:inkscape="http://www.inkscape.org/namespaces/inkscape"
   xmlns:sodipodi="http://sodipodi.sourceforge.net/DTD/sodipodi-0.dtd"
   xmlns:xlink="http://www.w3.org/1999/xlink"
   xmlns="http://www.w3.org/2000/svg"
   xmlns:svg="http://www.w3.org/2000/svg"><defs
   id="defs74" /><sodipodi:namedview
   id="namedview74"
   pagecolor="#ffffff"
   bordercolor="#000000"
   borderopacity="0.25"
   inkscape:showpageshadow="2"
   inkscape:pageopacity="0.0"
   inkscape:pagecheckerboard="0"
   inkscape:deskcolor="#d1d1d1"
   inkscape:export-bgcolor="#ffffff00"
   inkscape:zoom="0.22689655"
   inkscape:cx="1450"
   inkscape:cy="1000.4559"
   inkscape:window-width="1920"
   inkscape:window-height="1008"
   inkscape:window-x="0"
   inkscape:window-y="0"
   inkscape:window-maximized="1"
   inkscape:current-layer="Layer_1" />
<rect
   y="-0.001"
   style="fill:#FFFFFF;"
   width="2900"
   height="2000"
   id="rect1" />
<g
   id="g32">
	<polygon
   style="fill:#F7CC7F;"
   points="1660.117,1506.255 1551.98,1680.533 1548.831,1702.58 1792.4,1548.249  "
   id="polygon1" />
	<g
   id="g31">
		<g
   id="g30">
			<defs
   id="defs1">
				<path
   id="SVGID_1_"
   d="M2574.707,1368.994c-5.004,20.804-10.415,41.182-16.258,60.945      c-21.885,74.079-45.019,144.998-66.945,207.202c-71.928,55.718-175.088,70.132-275.668,56.162      c-55.426-7.698-108.547-27.817-160.205-48.556c-68.729-27.59-139.082-49.002-211.31-64.404      c-58.247-12.421-116.991-22.271-175.291-34.389c-71.543-14.866-108.115-64.708-158.372-110.462      c-51.486-46.861-117.749-68.614-185.786-84.026c-78.64-17.816-237.822-82.436-317.774-94.031      c-138.567-20.099-329.806,211.974-408.399,93.439c-47.082-71.014-13.853-377.04-13.853-377.04      c0-100.73-74.877-78.94-70.872-253.57c2.798-122.094,44.105-207.092,125.995-300.819      c216.583-247.879,536.867-244.325,709.387-121.59c64.047,45.564,90.599,96.457,170.211,123.428      c74.089,25.103,157.055,18.121,232.409,2.31c101.611-21.318,202.011-57.879,305.896-52.971      c131.213,6.205,256.115,84.357,314.846,196.998c48.787,93.575,51.669,200.242,57.213,302.557      C2443.768,1125.168,2547.314,1184.253,2574.707,1368.994z" />
			</defs>
			<clipPath
   id="SVGID_00000080891884525961421240000012337641564754549651_">
				<use
   xlink:href="#SVGID_1_"
   style="overflow:visible;"
   id="use1" />
			</clipPath>
			<path
   style="clip-path:url(#SVGID_00000080891884525961421240000012337641564754549651_);fill:#F48C7F;"
   d="M2372.717,567.618     c-58.73-112.641-183.633-190.793-314.846-196.998c-103.885-4.908-204.284,31.653-305.896,52.971     c-75.354,15.811-158.32,22.793-232.409-2.31c-79.612-26.972-106.163-77.864-170.211-123.428     c-172.519-122.735-492.804-126.289-709.387,121.59c-81.89,93.728-123.197,178.725-125.995,300.819     c-4.005,174.63,70.872,152.84,70.872,253.57c0,0-51.428,327.922-4.347,398.935c78.593,118.536,288.032-135.432,426.599-115.333     c79.953,11.596,239.134,76.215,317.774,94.031c68.037,15.412,134.299,37.165,185.786,84.026     c50.257,45.754,86.829,95.596,158.372,110.462c58.137,12.084,294.626,46.295,344.746,76.977     c36.374,22.272,78.499,40.514,123.075,53.47h282.623c26.201-9.621,50.513-22.593,72.029-39.26     c21.927-62.204,45.061-133.123,66.945-207.202c5.843-19.764,11.254-40.142,16.258-60.945     c-27.394-184.741-130.939-243.826-144.777-498.819C2424.386,767.86,2421.504,661.193,2372.717,567.618z"
   clip-path="url(#SVGID_00000080891884525961421240000012337641564754549651_)"
   id="path1" />
			<path
   style="clip-path:url(#SVGID_00000080891884525961421240000012337641564754549651_);fill:#F79C8D;"
   d="M2442.338,976.499     c-5.702-30.419-9.953-64.152-12.182-102.304c-584.341-98.328-1179.534-387.052-1763.754-483.257     c-8.965,9.107-17.782,18.607-26.433,28.507c-64.359,73.663-103.651,141.934-118.883,227.059     C1335.011,588.682,1838.693,885.842,2442.338,976.499z"
   clip-path="url(#SVGID_00000080891884525961421240000012337641564754549651_)"
   id="path2" />
			<path
   style="clip-path:url(#SVGID_00000080891884525961421240000012337641564754549651_);fill:#F79C8D;"
   d="M1382.844,1073.959     c-4.391-45.077-26.101-84.536-57.616-108.533c0.399-4.768,0.594-9.56,0.594-14.371c0-77.119-49.799-140.988-114.023-150.539     c-26.32-58.156-78.984-96.83-137.747-96.83c-54.26,0-102.902,33.215-130.761,83.414c-14.564-5.619-29.942-8.572-45.598-8.572     c-49.514,0-93.191,28.495-119.356,72.441c-20.646-10.287-43.115-15.759-66.219-15.759c-56.975,0-107.445,32.905-137.762,83.588     c6.319,14.316,10.489,31.264,10.489,55.035c0,0-6.658,42.457-12.99,100.125H1382.844z"
   clip-path="url(#SVGID_00000080891884525961421240000012337641564754549651_)"
   id="path3" />
			<path
   style="clip-path:url(#SVGID_00000080891884525961421240000012337641564754549651_);fill:#F79C8D;"
   d="M1730.078,1141.725     c-4.199-18.626-24.963-34.93-55.105-44.846c0.381-1.97,0.568-3.949,0.568-5.938c0-31.865-47.63-58.255-109.056-62.201     c-25.173-24.029-75.543-40.009-131.744-40.009c-51.896,0-98.419,13.724-125.063,34.466c-13.93-2.321-28.638-3.542-43.611-3.542     c-47.356,0-89.13,11.773-114.155,29.932c-19.746-4.251-41.236-6.511-63.334-6.511c-67.391,0-125.266,20.793-148.937,50.56     c-52.203,1.977-94.358,22.285-100.89,48.089H1730.078z"
   clip-path="url(#SVGID_00000080891884525961421240000012337641564754549651_)"
   id="path4" />
			<path
   style="clip-path:url(#SVGID_00000080891884525961421240000012337641564754549651_);fill:#F47458;"
   d="M1122.584,990.769     c-103.669-53.87-172.224-89.711-281.365-125.984c-55.27-18.369-119.607-73.842-176.378-58.793     c-35.713,9.467-89.087,21.974-131.208,42.482c21.015,46.833,51.214,61.39,51.214,125.36c0,0-15.298,97.545-21.568,197.754     c160.37-17.657,320.597-35.982,480.948-54.757l179.483-21.471c28.707-3.435,57.92-5.324,86.454-10.335     c16.866-2.961,39.8-13.204,56.245-3.474c-40.066-23.706-80.037-52.186-122.369-69.578     C1198.617,993.313,1166.88,1013.786,1122.584,990.769z"
   clip-path="url(#SVGID_00000080891884525961421240000012337641564754549651_)"
   id="path5" />
			<path
   style="clip-path:url(#SVGID_00000080891884525961421240000012337641564754549651_);fill:#F79C8D;"
   d="M2430.129,1099.729     c-4.199-18.626-24.963-34.93-55.105-44.845c0.382-1.971,0.568-3.95,0.568-5.938c0-31.865-47.629-58.256-109.055-62.202     c-25.173-24.029-75.543-40.009-131.744-40.009c-51.896,0-98.419,13.725-125.063,34.466c-13.931-2.321-28.639-3.542-43.611-3.542     c-47.356,0-89.13,11.774-114.155,29.932c-19.746-4.25-41.236-6.511-63.334-6.511c-67.391,0-125.266,20.794-148.937,50.56     c-52.202,1.978-94.358,22.285-100.89,48.088H2430.129z"
   clip-path="url(#SVGID_00000080891884525961421240000012337641564754549651_)"
   id="path6" />
			<path
   style="clip-path:url(#SVGID_00000080891884525961421240000012337641564754549651_);fill:#F79C8D;"
   d="M2462.678,1057.187     c-21.742-6.172-46.736-9.663-73.004-9.663c-51.895,0-98.418,13.724-125.063,34.466c-13.929-2.321-28.638-3.542-43.61-3.542     c-47.357,0-89.131,11.774-114.156,29.933c-19.746-4.251-41.236-6.512-63.333-6.512c-67.391,0-125.267,20.795-148.936,50.561     c-52.203,1.978-94.359,22.285-100.891,48.088h728.311C2501.904,1155.745,2480.151,1111.808,2462.678,1057.187z"
   clip-path="url(#SVGID_00000080891884525961421240000012337641564754549651_)"
   id="path7" />
			
				<ellipse
   style="clip-path:url(#SVGID_00000080891884525961421240000012337641564754549651_);fill:#F47458;"
   cx="2115.326"
   cy="1101.048"
   rx="98.744"
   ry="103.31"
   clip-path="url(#SVGID_00000080891884525961421240000012337641564754549651_)"
   id="ellipse7" />
			<path
   style="clip-path:url(#SVGID_00000080891884525961421240000012337641564754549651_);fill:#86B1F2;"
   d="M2558.449,1429.939     c5.843-19.764,11.254-40.142,16.258-60.945c-16.648-112.27-61.419-178.133-97.09-269.76H569.211     c-9.991,100.602-16.459,231.684,11.288,273.534c78.593,118.536,288.032-135.432,426.599-115.333     c79.953,11.596,239.134,76.215,317.774,94.031c68.037,15.412,134.299,37.165,185.786,84.026     c50.257,45.754,86.829,95.596,158.372,110.462c58.137,12.084,294.626,46.295,344.746,76.977     c36.374,22.272,78.499,40.514,123.075,53.47h282.623c26.201-9.621,50.513-22.593,72.029-39.26     C2513.431,1574.938,2536.564,1504.019,2558.449,1429.939z"
   clip-path="url(#SVGID_00000080891884525961421240000012337641564754549651_)"
   id="path8" />
			<path
   style="clip-path:url(#SVGID_00000080891884525961421240000012337641564754549651_);fill:#466EB6;"
   d="M580.499,1372.769     c7.704,11.619,16.665,19.659,26.693,24.729h70.357c97.59-30.938,231.361-154.305,329.548-140.063     c79.953,11.596,239.134,76.215,317.774,94.031c46.19,10.463,91.563,23.85,132.049,46.031H2567.52     c2.483-9.398,4.879-18.906,7.188-28.504c-16.648-112.27-61.419-178.133-97.09-269.76H569.211     C559.22,1199.836,552.752,1330.918,580.499,1372.769z"
   clip-path="url(#SVGID_00000080891884525961421240000012337641564754549651_)"
   id="path9" />
			<path
   style="clip-path:url(#SVGID_00000080891884525961421240000012337641564754549651_);fill:#355389;"
   d="M2492.125,1177.003     c-8.086-17.913-6.676-57.691-14.301-77.239c-622.299-35.578-1295.6-41.012-1910.889,23.694c-0.003,0.028-0.005,0.057-0.007,0.085     c-0.041,0.463-0.082,0.929-0.123,1.394c-0.001,0.009-0.002,0.017-0.002,0.025c-0.306,3.486-0.604,6.995-0.896,10.522     c172.098-18.735,398.585-31.037,534.629-33.43c496.46-8.732,839.806-1.001,1233.948,52.844     C2386.006,1161.937,2438.412,1168.263,2492.125,1177.003z"
   clip-path="url(#SVGID_00000080891884525961421240000012337641564754549651_)"
   id="path10" />
			<path
   style="clip-path:url(#SVGID_00000080891884525961421240000012337641564754549651_);fill:#F7CC7F;"
   d="M2539.094,1493.65     h-967.356c29.525,26.152,58.683,44.281,97.293,52.305c58.137,12.084,275.351,72.399,325.471,103.082     c36.374,22.271,129.178,35.339,173.753,48.294l251.221-20.93c26.201-9.621,50.513-22.593,72.029-39.26     C2508.29,1589.521,2524.4,1540.717,2539.094,1493.65z"
   clip-path="url(#SVGID_00000080891884525961421240000012337641564754549651_)"
   id="path11" />
			<path
   style="clip-path:url(#SVGID_00000080891884525961421240000012337641564754549651_);fill:#FAE0B2;"
   d="M2512.203,1576.85     c14.842-44.371,29.879-91.8,44.4-140.68c-380.568,20.397-717.486,13.865-1041.675,3.25c25.418,23.59,47.596,47.964,73.114,67.837     c64.199,6.209,128.399,12.361,192.599,18.313C2024.496,1548.18,2268.35,1567.906,2512.203,1576.85z"
   clip-path="url(#SVGID_00000080891884525961421240000012337641564754549651_)"
   id="path12" />
			<path
   style="clip-path:url(#SVGID_00000080891884525961421240000012337641564754549651_);fill:#184655;"
   d="M1157.534,158.494     c13.37,13.9,24.714,28.352,33.008,45.664c0,0.005,0.005,0.005,0.005,0.005c0.016,0.053,0.042,0.089,0.063,0.131     c4.021,8.415,7.323,17.507,9.79,27.538c0,0-0.1-0.032-0.294-0.1c-9.318-3.292-17.129-5.927-24.861-8.798     c-20.866-7.759-57.27-14.357-91.485-18.788h-0.016c-39.774-5.16-76.598-7.396-82.656-5.15     c23.245,5.46,48.373,6.473,69.371,17.213c65.034,33.275,118.441,82.451,148.698,158.089     c13.968,34.924,18.336,72.105,11.943,110.929c-0.903,5.475-2.294,10.866-4.068,19.118c0,0-0.016-0.021-0.053-0.058     c-0.01-0.011-0.026-0.026-0.036-0.042c-45.559-57.186-94.504-106.63-150.924-150.635c-0.047-0.037-0.089-0.074-0.136-0.116     c-2.042-1.59-4.1-3.186-6.163-4.761c12.11,46.021,12.567,88.693-7.386,132.972c-4.698-11.066-37.916-99.963-38.62-99.764     c0.583,5.181,31.497,154.32,3.15,211.801c-18.063,36.635-59.538,64.189-62.11,65.265c-0.698-91.002,2.11-130.609-15.575-206.777     c-0.005-0.005-0.005-0.01-0.005-0.016c-2.136-9.192-4.567-18.918-7.344-29.333c3.517,69.885-10.236,114.169-120.893,161.602     c19.864-73.879,74.441-132.468,32.152-219.932c-0.152,0.551-60.347,417.134-169.018,732.126     c-6.431,18.636-134.236,227.995-140.173,247.271c-18.431-10.545-3.947-103.044-20.619-116.215     c16.682-42.981,44.561-100.992,65.974-142.477c50.383-97.617,108.1-287.649,138.304-389.203     c23.707-79.695,63.333-243.039,83.25-324.362c-10.725,6.977-52.714,80.788-81.601,148.688     c-22.436,52.74-31.622,106.761-52.714,161.548c-5.36-9.312-17.916-29.527-22.834-40.157     c-26.384-56.992-30.562-106.42-15.182-168.578c11.911-48.121,36.709-91.748,61.276-133.344c6.494-10.992,0.704-7.317,1.89-12.829     c-40.079,40.939-74.599,84.939-107.123,134.309c-14.2-52.777,0.708-84.236,16.646-140.583     c-84.362,47.607-49.208,26.263-134.756,81.88c1.375-12.347,1.832-23.039,3.847-33.407c10.278-52.876,38-103.128,75.428-136.289     c42.934-38.047,146.625-66.709,148.368-68.194c-61.271-0.635-121.932,7.191-184.148,25.108     c11.565-29.428,28.756-50.835,51.05-65.202c21.701-13.99,45.344-23.938,68.992-36.095c-24.011-9.255-48.714-19.627-73.937-28.257     c-25.397-8.688-51.308-15.648-79.412-24.095c67.412-67.596,140.829-67.921,217.48-42.452c0.908-1.795,0.693-1.37,1.606-3.165     c-30.184-24.75-60.362-49.502-91.076-74.688c24.525-10.756,49.333-12.457,74.447-7.161     c42.698,9.008,76.887,34.803,107.532,67.397c44.909,47.764,42.347,59.459,55.05,115.359c0.415,1.832,0.74,3.695,1.05,5.559     c0.173,1.044,1.586,1.108,1.843,0.079c7.086-28.604,48.625-195.323,175.071-220.462c22.908-9.879,46.935-11.947,70.94-7.858     c2.284,0.389,4.561,0.877,6.792,1.501c0.882,0.247,1.643,0.992,2.939,1.816c-21.569,26.599-42.96,52.977-64.792,79.9     c18.929,4.452,36.236,8.52,53.549,12.588c0.231,1.454,0.247,1.543,0.472,2.998c-3.097,2.01-6.331,3.79-9.302,6.026     C1054.489,0.51,968.279,9.911,932.731,37.061c-6.609,5.05-24.641,87.486-24.084,88.2c4.021-2.163,131.832-63.098,177.454-71.008     c51.979-9.018,102.966-8.698,151.328,14.84c30.809,14.992,56,37.779,74.174,69.858c1.055,1.863,1.968,3.852,2.74,5.89     c0.346,0.908,0.189,2.079,0.331,4.142C1262.715,147.607,1211.146,149.392,1157.534,158.494z"
   clip-path="url(#SVGID_00000080891884525961421240000012337641564754549651_)"
   id="path13" />
			<path
   style="clip-path:url(#SVGID_00000080891884525961421240000012337641564754549651_);fill:#184655;"
   d="M2382.428,714.652     c-8.924-17.848-19.037-25.979-20.997-29.396c0.495-0.355,41.882,11.464,48.797,17.683c2.966-36.938-12.577-61.777-57.292-81.504     c59.848,13.03,114.862,32.61,169.42,59.103c-0.986-6.279-1.444-10.454-2.315-14.533c-6.182-28.937-20.392-53.385-41.544-73.284     c-45.812-43.096-102.271-60.627-163.322-63.504c-19.711-0.929-39.875,6.183-59.832,9.616     c7.698-6.402,104.09-35.142,144.631-37.528c7.021-0.414,14.035-1.021,22.466-1.643c-14.871-18.984-33.395-29.408-55.116-37.58     c39.756-22.985,80.017-40.258,121.494-55.454c-0.707-1.391-0.922-2.252-1.457-2.774c-1.203-1.172-2.5-2.271-3.871-3.235     c-23.654-16.619-50.168-24.601-78.865-25.431c-45.051-1.303-85.459,14.326-123.951,36.745     c-33.783,19.677-86.662,85.289-89.215,88.037c-0.646-0.323,3.044-33.088,16.545-60.299     c16.049-32.349,32.123-55.211,52.579-84.968c1.669-2.428,3.66-4.629,5.499-6.937c-0.558-1.024-0.57-1.047-1.129-2.072     c-14.865,2.558-29.73,5.115-45.984,7.912c9.472-25.475,18.752-50.437,28.109-75.605c-1.262-0.168-2.078-0.449-2.848-0.346     c-1.947,0.261-3.887,0.629-5.806,1.068c-20.165,4.623-39.165,5.151-54.421,19.131c-101.484,62.131-72.818,218.78-73.715,219.085     c-1.406-2.092-2.721-4.254-4.232-6.264c-26.221-34.851-27.581-43.767-76.912-62.959c-33.661-13.095-68.157-20.372-104.528-13.349     c-21.391,4.131-40.511,13.021-56.792,28.111c31.574,7.935,93.544,24.668,93.432,26.21     c-68.047,6.132-126.066,29.163-159.838,97.095c24.669-2.876,47.171-6.1,69.767-7.964c22.438-1.851,44.973-2.332,66.637-3.373     c-15.18,15.793-31.52,27.161-44.632,43.618c-13.471,16.906-20.343,39.993-20.97,64.016c44.008-31.779,89.706-56.07,138.336-74.68     c-0.945,1.574-74.64,53.705-97.58,93.463c-19.994,34.652-27.373,78.149-20.199,118.05c1.406,7.822,4.139,15.385,6.624,24.384     c51.548-65.203,29.931-39.457,82.857-98.731c3.704,44.069,1.019,70.539,27.521,102.758     c11.43-44.382,25.992-85.655,45.835-126.529c0.659,4.191,0.929,1.135-1.023,10.784c-7.388,36.507-11.128,73.207-6.619,110.312     c5.823,47.93,23.409,89.8,60.763,121.158c6.966,5.849,14.929,10.483,21.859,15.281c1.484-80.297-1.158-137.982,12.669-216.315     c7.933-44.944,26.333-85.802,26.394-85.858c19.727,51.796,101.135,120.975,106.809,178.428     c40.529-42.25,9.343-90.223-14.569-135.383c48.354,59.114,87.187,123.696,117.321,194.248c1.719-1.547,2.338-1.991,2.924-2.672     c15.156-17.655,22.328-46.533,23.504-77.58C2407.326,788.732,2403.111,756.018,2382.428,714.652z"
   clip-path="url(#SVGID_00000080891884525961421240000012337641564754549651_)"
   id="path14" />
			<path
   style="clip-path:url(#SVGID_00000080891884525961421240000012337641564754549651_);fill:#184655;"
   d="M2191.352,675.093     l0.017-0.029c0.027-0.005,0.315,2.95,0.313,2.921c20.074,179.238,85.123,404.644,194.207,563.646     c63.037,91.875,144.629,168.778,249.668,208.596l-38.01,81.627c-155.557-72.395-258.746-211.77-325.916-368.229     c-75.131-174.926-106.709-386.876-108.795-488.532H2191.352z"
   clip-path="url(#SVGID_00000080891884525961421240000012337641564754549651_)"
   id="path15" />
			<path
   style="clip-path:url(#SVGID_00000080891884525961421240000012337641564754549651_);fill:#355389;"
   d="M866.764,214.7     c0,0,228.37,75.599,433.115,48.824c204.746-26.775-80.323-168.521-214.195-157.496C951.812,117.053,866.764,214.7,866.764,214.7z     "
   clip-path="url(#SVGID_00000080891884525961421240000012337641564754549651_)"
   id="path16" />
			<g
   style="clip-path:url(#SVGID_00000080891884525961421240000012337641564754549651_);"
   clip-path="url(#SVGID_00000080891884525961421240000012337641564754549651_)"
   id="g19">
				<path
   style="fill:#355389;"
   d="M652.866,1169.306l41.183-29.585c6.792-18.148,12.635-49.781,13.261-63.814      c2.249-50.374-9.679-66.027-10.795-98.321l-16.231,7.158l15.644-20.301c-1.312-23.997-3.499-40.092-3.499-40.092      s-25.376,37.145-62.621,87.451c-37.244,50.307-55.813,359.407-55.813,359.407s89.995-136.788,119.601-212.707L652.866,1169.306z      "
   id="path17" />
				<path
   style="fill:#355389;"
   d="M777.399,1127.863l50.117-9.091c4.14-9.38,7.039-18.826,9.094-27.625l-26.547-5.647l28.135-1.838      c3.63-18.972,0.701-107.471,1.554-109.319c0,0-103.757,81.673-153.99,139.212c-36.265,41.539-95.899,195.451-95.899,195.451      s151.601-114.234,196.142-141.309c18.167-11.043,30.298-26.424,38.459-42.486L777.399,1127.863z"
   id="path18" />
				<path
   style="fill:#355389;"
   d="M1093.474,1061.205l-49.63-38.94l77.763,31.222c15.443-4.175,24.6-6.543,24.6-6.543      s-29.845-60.323-132.172-80.431c-102.326-20.108-159.885,11.171-228.102,59.207c-63.307,44.578-198.257,269.222-198.257,269.222      l34.109,122.881c0,0,138.567-243.528,249.42-285.978c10.136-3.882,37.544-8.792,48.405-12.641l-26.947-9.449l37.445,0.35      c27.616-9.422,63.944-20.692,91.244-28.983l-14.172-13.386l34.822,8.148C1060.924,1070.352,1078.425,1065.393,1093.474,1061.205      z"
   id="path19" />
			</g>
			<path
   style="clip-path:url(#SVGID_00000080891884525961421240000012337641564754549651_);fill:#355389;"
   d="M2158.232,598.991     c0,0-65.279-23.357-150.314,8.924c-85.035,32.282-108.656,113.38-118.104,154.323c-9.448,40.943,11.074,86.798,11.074,86.798     l82.064-93.964c0,0,13.942-48.736,48.587-79.443C2066.183,644.921,2158.232,598.991,2158.232,598.991z"
   clip-path="url(#SVGID_00000080891884525961421240000012337641564754549651_)"
   id="path20" />
			<path
   style="clip-path:url(#SVGID_00000080891884525961421240000012337641564754549651_);fill:#355389;"
   d="M1801.416,585.783     c0,0,90.723-11.813,200.959-11.813s155.857,25.021,155.857,25.021s-55.945-88.955-183.854-108.661     C1846.47,470.625,1801.416,585.783,1801.416,585.783z"
   clip-path="url(#SVGID_00000080891884525961421240000012337641564754549651_)"
   id="path21" />
			<path
   style="clip-path:url(#SVGID_00000080891884525961421240000012337641564754549651_);fill:#355389;"
   d="M2169.305,612.815     l-11.072-13.824c0,0-81.929,52.358-102.62,121.805s-15.442,147.137,5.556,191.232c20.997,44.094,74.541,78.74,74.541,78.74     l15.748-170.079l-12.6-34.646l14.699,20.998L2169.305,612.815z"
   clip-path="url(#SVGID_00000080891884525961421240000012337641564754549651_)"
   id="path22" />
			<path
   style="clip-path:url(#SVGID_00000080891884525961421240000012337641564754549651_);fill:#355389;"
   d="M2157.756,357.696     c0,0-35.01,66.248-37.795,102.888c-4.551,59.843,34.645,136.483,34.645,136.483l14.699,15.748c0,0,7.349-141.732,12.598-157.48     c5.25-15.748,16.799-38.845,16.799-38.845l-31.496,19.948l31.496-33.596c0,0,7.349-69.291,18.896-94.488     C2217.598,308.353,2180.854,334.6,2157.756,357.696z"
   clip-path="url(#SVGID_00000080891884525961421240000012337641564754549651_)"
   id="path23" />
			<path
   style="clip-path:url(#SVGID_00000080891884525961421240000012337641564754549651_);fill:#355389;"
   d="M2330.984,668.458     c-64.042-56.693-169.029-73.491-169.029-73.491l71.041,86.089l7.699-46.194l4.55,57.393c0,0,111.724,181.059,133.968,221.216     C2379.213,913.472,2395.026,725.151,2330.984,668.458z"
   clip-path="url(#SVGID_00000080891884525961421240000012337641564754549651_)"
   id="path24" />
			<path
   style="clip-path:url(#SVGID_00000080891884525961421240000012337641564754549651_);fill:#355389;"
   d="M2329.935,472.132     c0,0-66.142-12.598-115.485,32.546c-49.344,45.144-59.844,92.388-59.844,92.388l13.648,4.2c0,0,127.035-47.244,198.426-29.396     c71.392,17.848,95.539,51.443,95.539,51.443S2426.522,482.631,2329.935,472.132z"
   clip-path="url(#SVGID_00000080891884525961421240000012337641564754549651_)"
   id="path25" />
			<path
   style="clip-path:url(#SVGID_00000080891884525961421240000012337641564754549651_);fill:#355389;"
   d="M866.764,214.7     c0,0,130.722,26.774,203.17,99.223c72.448,72.449,31.5,236.244,31.5,236.244l-25.2-66.148l11.025-50.399l-24.927,48.087     L866.764,214.7z"
   clip-path="url(#SVGID_00000080891884525961421240000012337641564754549651_)"
   id="path26" />
			<path
   style="clip-path:url(#SVGID_00000080891884525961421240000012337641564754549651_);fill:#355389;"
   d="M858.889,228.875     c0,0-17.325,66.149-4.725,130.722c12.6,64.574-33.229,224.888-33.229,224.888s77.915-15.703,113.552-89.44     c37.965-78.555-55.474-289.579-55.474-289.579L858.889,228.875z"
   clip-path="url(#SVGID_00000080891884525961421240000012337641564754549651_)"
   id="path27" />
			<path
   style="clip-path:url(#SVGID_00000080891884525961421240000012337641564754549651_);fill:#355389;"
   d="M873.765,223.314     c0,0-143.832,61.942-203.675,166.929c-59.843,104.987-49.344,243.57-49.344,243.57l90.289-149.081l6.299-62.992l5.249,49.344     L873.765,223.314z"
   clip-path="url(#SVGID_00000080891884525961421240000012337641564754549651_)"
   id="path28" />
			<path
   style="clip-path:url(#SVGID_00000080891884525961421240000012337641564754549651_);fill:#355389;"
   d="M866.416,227.513     c0,0-11.548-78.74-1.05-125.984c10.499-47.244,67.192-99.738,67.192-99.738S924.158,175.019,866.416,227.513z"
   clip-path="url(#SVGID_00000080891884525961421240000012337641564754549651_)"
   id="path29" />
			<path
   style="clip-path:url(#SVGID_00000080891884525961421240000012337641564754549651_);fill:#466EB6;"
   d="M1515.649,1369.149     l99.223,133.871c0,0,81.898-124.422,86.623-127.572C1706.219,1372.298,1515.649,1369.149,1515.649,1369.149z"
   clip-path="url(#SVGID_00000080891884525961421240000012337641564754549651_)"
   id="path30" />
		</g>
	</g>
</g>
<path
   style="fill:#466EB6;"
   d="M996.6,1205.992h-4.2l-73.491,18.897l-146.982,117.585c0,0,145.932,6.299,149.081,5.25  c3.149-1.051-10.499-71.392-10.499-71.392L996.6,1205.992z"
   id="path32" />
<g
   id="g36">
	<path
   style="fill:#3C8F7C;"
   d="M2591.666,1288.868c-9.013,48.72-20.037,96.452-33.219,141.071   c-24.031,81.35-49.567,158.887-73.363,225.266c-69.275,41.585-159.749,51.722-248.589,38.188   c-9.128-139.244,11.228-361.307,213.648-733.071c21.103-38.767,99.267-178.37,110.335-178.76   c22.311-0.787,52.533,8.313,55.676,34.02C2628.354,915.364,2624.973,1108.7,2591.666,1288.868z"
   id="path33" />
	<g
   id="g35">
		<path
   style="fill:#50BFA5;"
   d="M2571.194,1288.868c-9.013,48.72-20.036,96.452-33.218,141.071    c-24.031,81.35-54.063,172.229-77.858,238.607c-39.708,23.837-84.905,32.957-132.983,33.852    c-4.033,0.075-8.088,0.092-12.162,0.055c-32.071-0.29-65.321-4-98.965-9.125c-9.129-139.244,11.244-361.242,213.664-733.006    c21.103-38.767,63.883-111.371,90.168-151.754c27.418-42.122,71.162-31.273,75.843,7.014    C2607.881,915.364,2604.502,1108.7,2571.194,1288.868z"
   id="path34" />
		<path
   style="fill:#96D9C9;"
   d="M2327.121,1702.399c52.752-155.373,139.32-435.18,171.313-616.123    c7.249-40.993,11.77-77.701,12.562-107.875l-22.384,82.41l-173.541,641.644C2319.106,1702.49,2323.124,1702.473,2327.121,1702.399    z"
   id="path35" />
	</g>
</g>
<path
   style="fill:#13375B;"
   d="M602.544,949.375c-8.549-25.96-33.895-79.203-83.277-119.091  c-49.382-39.888-102.922-37.514-102.922-37.514s12.253,11.586,27.203,33.518l26.1,6.023l-18.804,5.216  c16.234,26.271,33.751,63.583,41.71,110.531c0.9,5.305,1.849,10.504,2.844,15.602l15.434,3.33l-13.989,3.845  c19.482,93.908,54.371,151.634,77.224,183.42c57.702,80.254,72.824,170.607,72.824,170.607S633.908,1044.611,602.544,949.375z"
   id="path36" />
<g
   id="g39">
	<path
   style="fill:#355389;"
   d="M1812.822,1416.266l33.857,2.363c27.616-9.424,63.247-19.267,90.548-27.558l-53.857-38.229   l74.506,32.993c58.992-17.248,104.205-28.941,104.205-28.941s-29.846-60.323-132.172-80.431   c-102.326-20.108-155.379-5.119-223.597,42.916c-63.308,44.577-169.029,295.801-169.029,295.801l-1.575,96.325   c0,0,142.799-219.67,253.652-262.119c10.136-3.882,31.274-9.67,42.135-13.519L1812.822,1416.266z"
   id="path37" />
	<path
   style="fill:#13375B;"
   d="M1576.443,1380.318l24.408-51.966c-10.818-18.745-38.445-57.572-59.894-69.867l-5.129,453.878   c0,0,44.499-120.02,74.472-235.986c10.282-39.782,24.093-112.874,10.235-139.363L1576.443,1380.318z"
   id="path38" />
	<path
   style="fill:#13375B;"
   d="M1893.416,1496.729c0,0-63.002,8.84-130.411,29.474c-69.841,21.378-238.026,186.573-238.026,186.573   s4.955,0.968,13.036,0.787c35.646-0.797,138.229-6.523,201.325-37.224l-22.746-18.081l38.877,9.072   c0.011-0.008,0.021-0.015,0.032-0.021c36.994-23.872,81.099-88.184,98.22-122.559l-19.431-7.137l29.585-4.379   C1882.216,1512.018,1893.416,1496.729,1893.416,1496.729z"
   id="path39" />
</g>
<g
   id="g43">
	<path
   style="fill:#F7CC7F;"
   d="M1374.668,1226.33c-0.603,0-1.215-0.063-1.83-0.194c-5.253-1.117-8.698-6.761-7.693-12.607   l38.734-225.647c1.003-5.847,6.071-9.683,11.329-8.563c5.253,1.117,8.697,6.761,7.692,12.607l-38.734,225.646   C1383.281,1222.736,1379.222,1226.33,1374.668,1226.33z"
   id="path40" />
	<path
   style="fill:#184655;"
   d="M1290.988,992.647l-39.72,227.822l119.685,1.575l42.771-242.914l-108.826-0.043   C1296.675,979.437,1292.024,986.629,1290.988,992.647z"
   id="path41" />
	<path
   style="fill:#F7CC7F;"
   d="M1127.462,1215.712c-0.004,0.128-0.011,0.256-0.012,0.386h0   c-0.014,7.113,6.514,12.893,14.579,12.908l227.678,0.451c8.065,0.016,14.616-5.737,14.63-12.851c0-0.301-0.015-0.599-0.037-0.894   H1127.462z"
   id="path42" />
	<path
   style="fill:#FAE0B2;"
   d="M1074.899,1215.538c-0.003,0.128-0.008,0.256-0.008,0.385l0,0   c-0.01,7.113,4.565,12.893,10.218,12.909l159.58,0.45c5.653,0.017,10.244-5.737,10.254-12.851c0-0.301-0.011-0.598-0.026-0.894   H1074.899z"
   id="path43" />
</g>
<g
   id="g74">
	<path
   style="fill:#F7A491;"
   d="M1092.069,1646.438c0,0,13.633,42.819,13.65,42.901c1.056,5.075,1.688,18.048,3.359,22.388   c6.28,16.304,67.21-41.782,48.169-42.745c-1.724-0.088-10.396-0.256-13.017-5.619c-4.039-8.263-15.381-38.999-15.381-38.999   L1092.069,1646.438z"
   id="path44" />
	<path
   style="fill:#13375B;"
   d="M1107.379,1722.4c-7.604-3.375-2.898-36.949-2.898-36.949s20.195,2.512,28.438-2.096   c8.243-4.607,19.061-25.657,19.061-25.657c39.292-1.796,80.33,9.128,78.741,20.473   C1230.721,1678.171,1114.968,1725.769,1107.379,1722.4z"
   id="path45" />
	<path
   style="fill:#3C8F7C;"
   d="M1782.373,1712.409H366.444c-5.38,0-9.741,4.361-9.741,9.741v1.071c0,5.38,4.361,9.741,9.741,9.741   h1415.929c5.38,0,9.74-4.361,9.74-9.741v-1.071C1792.113,1716.771,1787.753,1712.409,1782.373,1712.409z"
   id="path46" />
	<path
   style="fill:#3C8F7C;"
   d="M1035.444,1108.354c0,0-99.212-24.672-151.443-24.672c-45.062,0,14.961,50.393,14.961,50.393   s100.788,19.948,102.362,19.948S1035.444,1108.354,1035.444,1108.354z"
   id="path47" />
	<g
   id="g52">
		<g
   id="g51">
			<rect
   x="650.424"
   y="1435.615"
   style="fill:#355389;"
   width="26.159"
   height="193.857"
   id="rect47" />
			<g
   id="g50">
				<path
   style="fill:#13375B;"
   d="M687.121,1672.623h-43.036v-31.91v-18.509c0-3.963,3.069-7.176,6.855-7.176h29.325      c3.786,0,6.855,3.213,6.855,7.176V1672.623z"
   id="path48" />
				<polygon
   style="fill:#13375B;"
   points="507.559,1706.737 646.731,1645.914 647.061,1672.175 546.94,1706.737 546.948,1712.409       507.567,1712.408     "
   id="polygon48" />
				<polygon
   style="fill:#13375B;"
   points="823.618,1706.726 823.622,1712.403 784.229,1712.42 784.244,1706.726 683.281,1672.568       683.831,1645.477     "
   id="polygon49" />
				<polygon
   style="fill:#13375B;"
   points="684.492,1712.82 684.492,1717.53 643.56,1717.53 643.56,1712.82 652.907,1712.82       652.907,1645.92 678.529,1645.92 675.844,1712.82     "
   id="polygon50" />
			</g>
		</g>
		<rect
   x="643.389"
   y="1708.045"
   style="fill:#13375B;"
   width="41.076"
   height="9.449"
   id="rect51" />
	</g>
	<rect
   x="933.026"
   y="1255.882"
   style="fill:#F7CC7F;"
   width="299.913"
   height="105.075"
   id="rect52" />
	<path
   style="fill:#B75742;"
   d="M800.405,1379.162c-76.792-11.721-119.131,10.9-155.506-12.541   c-23.012-14.829-16.367-141.288-32.546-195.275c-3.32-11.081-11.934-16.835-22.938-19.151   c-36.005-7.579-67.763,24.893-60.234,60.909l52.726,252.205l284.515,5.25C866.421,1470.559,877.197,1390.883,800.405,1379.162z"
   id="path52" />
	<g
   id="g56">
		<rect
   x="1374.103"
   y="1048.814"
   style="fill:#B75742;"
   width="163.778"
   height="181.612"
   id="rect53" />
		<rect
   x="1374.103"
   y="1048.814"
   style="fill:#F47458;"
   width="37.516"
   height="181.612"
   id="rect54" />
		<rect
   x="1423.53"
   y="1081.316"
   style="fill:#FAE0B2;"
   width="31.626"
   height="149.126"
   id="rect55" />
		
			<rect
   x="1455.156"
   y="1081.316"
   transform="matrix(-1 -1.224647e-16 1.224647e-16 -1 3022.2188 2311.7588)"
   style="fill:#F7CC7F;"
   width="111.906"
   height="149.126"
   id="rect56" />
	</g>
	<rect
   x="1128.208"
   y="1249.876"
   style="fill:#FAE0B2;"
   width="234.844"
   height="409.952"
   id="rect57" />
	<rect
   x="909.111"
   y="1242.608"
   style="fill:#184655;"
   width="25.868"
   height="469.795"
   id="rect58" />
	<rect
   x="1241.707"
   y="1659.645"
   style="fill:#184655;"
   width="23.829"
   height="52.77"
   id="rect59" />
	<rect
   x="1514.136"
   y="1659.645"
   style="fill:#184655;"
   width="23.829"
   height="52.736"
   id="rect60" />
	<path
   style="fill:#F7A491;"
   d="M1129.221,1641.723c0,0,69.452,50.469,69.513,50.527c3.732,3.599,11.56,13.962,15.386,16.606   c14.372,9.935,32.001-72.381,15.725-62.451c-1.474,0.899-8.734,5.644-13.92,2.688c-7.992-4.552-65.445-43.589-65.445-43.589   L1129.221,1641.723z"
   id="path60" />
	<path
   style="fill:#13375B;"
   d="M1220.024,1712.403c-8.184,1.494-24.442-22.398-24.442-22.398s18.039-9.571,22.255-18.021   c4.216-8.45,11.761-25.516,11.761-25.516c31.455-23.615,83.513-32.337,88.589-22.068   C1318.188,1624.401,1228.192,1710.912,1220.024,1712.403z"
   id="path61" />
	<path
   style="fill:#355389;"
   d="M1006.392,1348.037c-20.147-17.148-136.959-44.071-223.476-64.638l-0.06-0.104l-18.628-18.86   l-4.513,1.056l-72.403-3.908l13.753,104.498l265.171,60.693c6.372,21.162,12.665,30.365,31.965,75.373   c23.362,54.484,91.547,154.958,91.547,154.958l46.921-23.192C1136.67,1633.912,1023.952,1362.983,1006.392,1348.037z"
   id="path62" />
	<path
   style="fill:#466EB6;"
   d="M1194.302,1623.471l-227.278-201.422l-200.207-129.873l2.083-28.637   c0,0-126.007-24.574-126.06-24.584c-0.753-0.146-9.885,25.93-10.814,28.512c-3.621,10.068-6.834,20.338-8.602,30.911   c-3.826,22.877,0.316,47.515,15.448,65.753c45.92,55.35,102.271,80.594,133.042,90.973c53.443,18.027,83.384,33.965,170.824,72.044   c0,0,42.245,40.007,78.12,60.456c20.32,11.582,82.139,42.784,133.746,71.932L1194.302,1623.471z"
   id="path63" />
	<rect
   x="1149.88"
   y="1249.876"
   style="fill:#FAE0B2;"
   width="391.602"
   height="409.952"
   id="rect63" />
	<rect
   x="1123.652"
   y="1240.78"
   style="fill:#184655;"
   width="31.551"
   height="471.819"
   id="rect64" />
	<path
   style="fill:#F48C7F;"
   d="M1066.153,1152.711c-14.173-8.494-30.392,15.084-33.508,25.634   c38.454,13.947,73.682,21.924,77.34,29.222l23.097-12.599C1120.441,1185.292,1076.374,1156.278,1066.153,1152.711z"
   id="path64" />
	<path
   style="fill:#F48C7F;"
   d="M1151.455,1208.791c16.584,5.703,56.824,33.027,63.276,42.311   c5.738,8.256,16.36,36.285,16.36,36.285c-5.21,6.882-15.757-25.571-16.377-24.598c-1.645,2.585,14.96,34.035,11.544,36.29   c-6.781,4.476-18.415-34.031-19.501-28.725c-1.087,5.307,15.428,33.967,11.432,36.604c-3.996,2.638-16.049-26.87-20.015-30.636   c-4.95-4.699,12.568,32.09,9.22,34.076c-2.728,1.619-13.072-18.653-22.353-38.479c-0.822-1.757-5.455-7.803-4.19,3.231   c0.316,2.758,2.146,8.92,1.546,10.744c-1.17,3.561-4.304,0.316-6.143-3.484l-12.201-27.864c0,0-4.375-9.011-3.675-13.386   c0.7-4.374-52.318-28.871-52.318-28.871L1151.455,1208.791z"
   id="path65" />
	<path
   style="fill:#F7A491;"
   d="M896.074,1099.43c0,0,30.184,6.824,54.331,1.05c24.147-5.774,53.543-9.974,53.543,12.073   c0,22.048-59.842,27.822-59.842,27.822S901.849,1139.325,896.074,1099.43z"
   id="path66" />
	<path
   style="fill:#13375B;"
   d="M1070.438,1086.446c-5.522-7.676-15.199-11.45-24.962-11.91   c-13.116-12.898-52.463-15.001-78.098-5.027c0,0-10.148,2.274-19.072,13.474c-8.924,11.198-13.298,26.421-18.023,33.07   c-4.724,6.649,16.798,34.471,16.798,34.471l0.09-0.34c5.37,6.251,13.003,11.327,21.432,16.963   c25.062,12.511,75.481,35.573,92.06-9.24c1.184-3.199,3.031-6.115,5.511-8.457   C1082.512,1134.024,1085.134,1106.873,1070.438,1086.446z"
   id="path67" />
	<path
   style="fill:#3C8F7C;"
   d="M1283.689,1221.76l0.028,7.149l56.925,0.16c2.423,0.007,3.796-2.808,2.306-4.735   c-4.32-5.592-11.892-14.497-18.373-17.503c-5.094-2.362-16.111-2.319-25.435-1.744   C1290.428,1205.624,1283.654,1212.949,1283.689,1221.76z"
   id="path68" />
	<path
   style="fill:#13375B;"
   d="M1051.018,1077.032c0,9.205-17.217,8.487-33.814,8.487c-16.598,0-56.999,1.242-56.999-7.962   c0-9.205,40.401-25.372,56.999-25.372C1033.801,1052.186,1051.018,1067.828,1051.018,1077.032z"
   id="path69" />
	<path
   style="fill:#F47458;"
   d="M1184.463,1226.984l-2.387-1.22l-34.639,6.14c4.917,2.724,8.99,5.199,11.188,6.996l36.066-4.885   C1191.434,1231.682,1187.979,1229.306,1184.463,1226.984z"
   id="path70" />
	<path
   style="fill:#F7A491;"
   d="M1268.516,1200.917l4.375-4.374c0,0,24.803,0,29.571,1.05c2.248,0.495,19.422,10.849,17.848,14.348   c-1.575,3.5-18.022-5.948-18.022-5.948l-16.623-1.051L1268.516,1200.917z"
   id="path71" />
	<path
   style="fill:#184655;"
   d="M1583.313,1257.818H874.905c-6.886,0-12.469-5.582-12.469-12.469v-4.1   c0-6.886,5.583-12.469,12.469-12.469h708.407c6.887,0,12.469,5.583,12.469,12.469v4.1   C1595.781,1252.236,1590.199,1257.818,1583.313,1257.818z"
   id="path72" />
	<path
   style="fill:#F7A491;"
   d="M962.39,1154.985l114,31.059c0,0,65.092,5.249,98.688,8.924s56.168,9.974,62.467,8.924   c6.299-1.05,27.822-7.349,34.646-7.349c3.346,0,25.853,7.742,25.853,7.742s20.851,19.231,21.653,22.441   c1.575,6.299-24.016-14.305-24.016-14.305s20.866,13.518,20.341,16.404s-25.591-8.53-25.591-8.53s16.58,5.644,15.617,8.793   c-0.392,1.28-56.431-0.394-61.418-0.263c-4.838,0.127-167.192,9.711-167.192,9.711l-147.507-14.173L962.39,1154.985z"
   id="path73" />
	<path
   style="fill:#50BFA5;"
   d="M1041.823,1170.88c-1.755-1.134-98.111-31.555-98.111-31.555s-51.082-54.319-61.548-55.905   c-81.365-12.337-112.893-7.649-174.279,49.605c-54.593,50.919-80.314,148.032-80.314,148.032c44.72,27.35,143.4,7.14,143.4,7.14   c7.956-1.628,11.886-4.902,11.886-4.902l-5.68-8.012c9.123-13.074,62.414-34.199,88.189-38.846   c15.004-2.704,26.317-4.488,35.124-5.771c32.246,3.386,124.719,8.658,124.719,8.658S1049.096,1175.578,1041.823,1170.88z"
   id="path74" />
</g>
</svg>
